<?xml version="1.0" encoding="UTF-8"?>
<svg width="24px" height="24px" viewBox="0 0 24 24" version="1.1" xmlns="http://www.w3.org/2000/svg" xmlns:xlink="http://www.w3.org/1999/xlink">
    <!-- Generator: Sketch 62 (91390) - https://sketch.com -->
    <title>attention</title>
    <desc>Created with Sketch.</desc>
    <g id="Page-1" stroke="none" stroke-width="1" fill="none" fill-rule="evenodd">
        <g id="Desktop-Copy" transform="translate(-438.000000, -349.000000)" fill="#FFC94C" fill-rule="nonzero">
            <g id="attention" transform="translate(438.000000, 349.000000)">
                <path d="M12,0 C5.38279688,0 0,5.3833125 0,12 C0,18.6166875 5.38279688,24 12,24 C18.6172031,24 24,18.6166875 24,12 C24,5.3833125 18.6172031,0 12,0 Z M12,20.0000156 C11.4482344,20.0000156 11.0000156,19.5512813 11.0000156,19.0000312 C11.0000156,18.4487812 11.4482813,18.0000469 12,18.0000469 C12.5517188,18.0000469 12.9999844,18.4487812 12.9999844,19.0000312 C12.9999844,19.5512813 12.5517656,20.0000156 12,20.0000156 Z M12.9999844,16.5 C12.9999844,16.776375 12.7763438,17.0000156 12.4999688,17.0000156 L11.4999844,17.0000156 C11.2236094,17.0000156 10.9999688,16.776375 10.9999688,16.5 L10.9999688,4.5 C10.9999688,4.223625 11.2236094,3.99998438 11.4999844,3.99998438 L12.4999688,3.99998438 C12.7763438,3.99998438 12.9999844,4.223625 12.9999844,4.5 L12.9999844,16.5 Z" id="Shape"></path>
            </g>
        </g>
    </g>
</svg>