<?xml version="1.0" encoding="utf-8"?>
<!-- Generator: Adobe Illustrator 25.0.1, SVG Export Plug-In . SVG Version: 6.00 Build 0)  -->
<svg version="1.1" id="Layer_1" xmlns="http://www.w3.org/2000/svg" xmlns:xlink="http://www.w3.org/1999/xlink" x="0px" y="0px"
	 viewBox="0 0 595.3 841.9" style="enable-background:new 0 0 595.3 841.9;" xml:space="preserve">
<style type="text/css">
	.st0{fill-rule:evenodd;clip-rule:evenodd;fill:#C31643;}
	.st1{fill:#C31643;}
	.st2{fill-rule:evenodd;clip-rule:evenodd;fill:#FFFFFF;}
</style>
<g transform="matrix(4.16667,0,0,4.16667,-249.062,-1419.82)">
	<g transform="matrix(1,0,0,1,0,22)">
		<path class="st0" d="M72.7,408.8h-5.8v12.7h-1.4v-12.7h-5.8v-1.4h12.9V408.8z"/>
		<path class="st1" d="M190.9,422C190.9,422,190.9,422,190.9,422c0.1,0,0.1,0,0.2,0c0,0,0,0,0,0l8.6,4.2c0,0,0,0,0.1,0
			c0,0,0.1,0.1,0.1,0.1c0,0.1,0.1,0.1,0.1,0.2c0,0.1,0,0.2,0,0.3c0,0.1,0,0.1-0.1,0.2c0,0.1-0.1,0.1-0.1,0.1c-0.1,0-0.1,0.1-0.2,0.1
			c0,0,0,0-0.1,0l-3.7,0.5l-0.5,4.1l0,0c0,0,0,0,0,0.1c0,0.1-0.1,0.1-0.1,0.2c0,0-0.1,0.1-0.1,0.1s-0.1,0.1-0.2,0.1
			c-0.1,0-0.2,0-0.2,0c-0.1,0-0.2,0-0.3-0.1c-0.1,0-0.1-0.1-0.2-0.2c0,0,0,0,0-0.1l-3.9-9.2c0,0,0,0,0-0.1c0,0,0-0.1,0-0.1
			c0-0.1,0-0.1,0-0.2c0-0.1,0.1-0.2,0.1-0.2c0.1-0.1,0.1-0.1,0.2-0.1c0,0,0.1,0,0.1,0C190.8,422,190.8,422,190.9,422
			C190.9,422,190.9,422,190.9,422z M194.4,429.6l0.3-2.4l0,0c0,0,0,0,0,0c0,0,0-0.1,0.1-0.1c0.1-0.1,0.2-0.2,0.3-0.3
			c0,0,0.1,0,0.1,0c0,0,0,0,0,0l2.3-0.3l-5.5-2.7C192.8,425.7,193.6,427.7,194.4,429.6z"/>
		<path class="st2" d="M182.6,416.4c-0.3,0-0.5,0-0.8,0c-0.4,0-0.9,0-1.3,0c-0.5,0-1.1,0-1.6,0c-0.4,0-0.8,0-1.2,0
			c-0.5,0-0.9,0-1.4-0.1l-0.1,0l0,5.2l-1.4,0l0-14.1l0.7-0.1c0.7-0.1,1.4-0.1,2.1-0.1c0.9,0,1.9-0.1,2.8-0.1c0.1,0,0.2,0,0.3,0
			c0.9,0,1.7,0,2.6,0.1c0.2,0,0.5,0.1,0.7,0.1c0.1,0,0.2,0,0.4,0.1c0.1,0,0.2,0,0.3,0.1c0.4,0.1,0.7,0.3,1,0.5
			c0.2,0.1,0.3,0.2,0.5,0.4c0.1,0.1,0.2,0.2,0.3,0.3c0.1,0.1,0.1,0.2,0.2,0.2c0.4,0.6,0.6,1.2,0.8,1.9c0,0.1,0,0.2,0,0.4
			c0,0.2,0,0.3,0,0.5c0,0.2,0,0.4,0,0.6c0,0.3-0.1,0.5-0.1,0.8c-0.1,0.3-0.2,0.7-0.3,1c-0.3,0.6-0.7,1.2-1.2,1.7
			c-0.1,0.1-0.2,0.1-0.3,0.2c-0.2,0.1-0.4,0.2-0.6,0.3c-0.2,0.1-0.4,0.1-0.6,0.2l3.1,5.2l-1.3,0.5L182.6,416.4z M81.5,420.1h10.1
			v1.4H80.1v-14.1h1.4V420.1z M130.5,421.5h-1.8l5.6-7.1l-5.5-7h1.8c1.5,1.9,3.1,3.9,4.6,5.9l4.6-5.9h1.8l-5.5,7
			c1.9,2.4,3.8,4.8,5.6,7.1h-1.8l-4.7-6L130.5,421.5z M125.8,408.8h-10.2v5h9.1v1.4h-9.1v5h10.1v1.4h-11.5v-14.2h11.6V408.8z
			 M171.4,421.5h-11.5v-14.2h11.6c0,0.5,0,0.9,0,1.4h-10.2v5h8.9v1.4h-8.9v5h10.1V421.5z M109.6,419.9h1.6v1.6h-1.6V419.9z
			 M150.4,407.1c0.9,0,1.7,0,2.6,0.1c0.2,0,0.5,0.1,0.7,0.1c0.1,0,0.2,0,0.4,0.1c0.1,0,0.2,0,0.3,0.1c0.4,0.1,0.7,0.3,1,0.5
			c0.2,0.1,0.3,0.2,0.4,0.4c0.1,0.1,0.2,0.2,0.3,0.3c0.1,0.1,0.1,0.2,0.2,0.2c0.4,0.6,0.6,1.2,0.8,1.9c0,0.1,0,0.2,0,0.4
			c0,0.2,0,0.3,0,0.5c0,0.2,0,0.4,0,0.6c0,0.3-0.1,0.5-0.1,0.8c-0.1,0.3-0.2,0.7-0.3,1c-0.2,0.6-0.6,1.1-1,1.5
			c-0.1,0.1-0.1,0.1-0.2,0.2c-0.1,0.1-0.2,0.1-0.3,0.2c-0.2,0.1-0.4,0.2-0.6,0.3c-0.2,0.1-0.4,0.1-0.6,0.2c-0.2,0-0.3,0-0.5,0.1
			c-0.2,0-0.4,0-0.5,0c-0.4,0-0.9,0-1.3,0c-0.4,0-0.9,0-1.3,0c-0.5,0-1.1,0-1.6,0c-0.4,0-0.8,0-1.2,0c-0.5,0-0.9,0-1.4-0.1l-0.1,0
			l0,5.2l-1.4,0l0-14.1l0.7-0.1c0.7-0.1,1.4-0.1,2.1-0.1c0.9,0,1.9-0.1,2.8-0.1C150.2,407.1,150.3,407.1,150.4,407.1z M196.9,421.5
			h-1.4v-12.7h-5.8v-1.4h12.9v1.4h-5.8V421.5z M106.5,421.5H95v-14.2h11.6c0,0.5,0,0.9,0,1.4H96.4v5.1h8.9v1.4h-8.9v4.9h10.1V421.5z
			 M76.8,421.5h-1.4v-14h1.4V421.5z M180.5,408.5c-0.7,0-1.5,0-2.2,0.1c-0.7,0-1.3,0.1-2,0.1l-0.1,0l0,6.2c0.1,0,0.1,0,0.2,0
			c0.5,0,0.9,0,1.4,0.1c0.4,0,0.8,0,1.2,0c0.5,0,1,0,1.5,0c0.5,0,0.9,0,1.4,0c0.3,0,0.5,0,0.8,0c0.2,0,0.4,0,0.7,0
			c0.1,0,0.3,0,0.4,0c0.1,0,0.2,0,0.4,0c0.2,0,0.4-0.1,0.6-0.2c0,0,0.1-0.1,0.1-0.1c0.3-0.2,0.6-0.5,0.8-0.8c0-0.1,0.1-0.1,0.1-0.2
			c0-0.1,0.1-0.2,0.1-0.2c0.1-0.3,0.2-0.5,0.2-0.8c0-0.2,0.1-0.4,0.1-0.6c0-0.2,0-0.4,0-0.5c0-0.1,0-0.3,0-0.4c0-0.1,0-0.2-0.1-0.3
			c0-0.1,0-0.2-0.1-0.2c-0.1-0.4-0.3-0.8-0.6-1.1c0,0-0.1-0.1-0.1-0.1c-0.1-0.1-0.1-0.1-0.2-0.2c-0.2-0.1-0.3-0.2-0.5-0.3
			c-0.1,0-0.1,0-0.2-0.1c-0.1,0-0.2,0-0.3,0c-0.2,0-0.4-0.1-0.6-0.1c-0.4,0-0.7-0.1-1.1-0.1c-0.5,0-0.9,0-1.4,0
			C180.6,408.5,180.5,408.5,180.5,408.5z M150.2,408.5c-0.7,0-1.5,0-2.2,0.1c-0.7,0-1.3,0.1-2,0.1l-0.1,0l0,6.2c0.1,0,0.1,0,0.2,0
			c0.5,0,0.9,0,1.4,0.1c0.4,0,0.8,0,1.2,0c0.5,0,1,0,1.5,0c0.5,0,0.9,0,1.4,0c0.3,0,0.5,0,0.8,0c0.2,0,0.4,0,0.7,0
			c0.1,0,0.3,0,0.4,0c0.1,0,0.2,0,0.4,0c0.2,0,0.4-0.1,0.6-0.2c0,0,0.1-0.1,0.1-0.1c0.3-0.2,0.6-0.5,0.8-0.8c0-0.1,0.1-0.1,0.1-0.2
			c0-0.1,0.1-0.2,0.1-0.2c0.1-0.3,0.2-0.5,0.2-0.8c0-0.2,0.1-0.4,0.1-0.6c0-0.2,0-0.4,0-0.5c0-0.1,0-0.3,0-0.4c0-0.1,0-0.2-0.1-0.3
			c0-0.1,0-0.2-0.1-0.2c-0.1-0.4-0.3-0.8-0.6-1.1c0,0-0.1-0.1-0.1-0.1c-0.1-0.1-0.1-0.1-0.2-0.2c-0.2-0.1-0.4-0.2-0.6-0.3
			c-0.1,0-0.2,0-0.3-0.1c-0.1,0-0.1,0-0.2,0c-0.2,0-0.4,0-0.6-0.1c-0.3,0-0.7-0.1-1-0.1c-0.5,0-1,0-1.5,0
			C150.3,408.5,150.2,408.5,150.2,408.5z"/>
	</g>
</g>
</svg>
